G04 (created by PCBNEW (2013-07-07 BZR 4022)-stable) date 2/9/2014 3:44:45 PM*
%MOIN*%
G04 Gerber Fmt 3.4, Leading zero omitted, Abs format*
%FSLAX34Y34*%
G01*
G70*
G90*
G04 APERTURE LIST*
%ADD10C,0.00590551*%
%ADD11C,0.011811*%
%ADD12C,0.0591*%
%ADD13C,0.1181*%
%ADD14R,0.07X0.07*%
%ADD15C,0.07*%
%ADD16R,0.35X0.35*%
%ADD17R,0.08X0.06*%
%ADD18R,0.1378X0.1378*%
G04 APERTURE END LIST*
G54D10*
G54D11*
X83340Y-52504D02*
X83312Y-52476D01*
X83256Y-52448D01*
X83115Y-52448D01*
X83059Y-52476D01*
X83031Y-52504D01*
X83002Y-52560D01*
X83002Y-52617D01*
X83031Y-52701D01*
X83368Y-53039D01*
X83002Y-53039D01*
X82637Y-52448D02*
X82581Y-52448D01*
X82524Y-52476D01*
X82496Y-52504D01*
X82468Y-52560D01*
X82440Y-52673D01*
X82440Y-52814D01*
X82468Y-52926D01*
X82496Y-52982D01*
X82524Y-53010D01*
X82581Y-53039D01*
X82637Y-53039D01*
X82693Y-53010D01*
X82721Y-52982D01*
X82749Y-52926D01*
X82777Y-52814D01*
X82777Y-52673D01*
X82749Y-52560D01*
X82721Y-52504D01*
X82693Y-52476D01*
X82637Y-52448D01*
X81878Y-53039D02*
X82215Y-53039D01*
X82046Y-53039D02*
X82046Y-52448D01*
X82103Y-52532D01*
X82159Y-52589D01*
X82215Y-52617D01*
X81371Y-52645D02*
X81371Y-53039D01*
X81512Y-52420D02*
X81653Y-52842D01*
X81287Y-52842D01*
X81062Y-52814D02*
X80612Y-52814D01*
X80218Y-52448D02*
X80162Y-52448D01*
X80106Y-52476D01*
X80078Y-52504D01*
X80050Y-52560D01*
X80022Y-52673D01*
X80022Y-52814D01*
X80050Y-52926D01*
X80078Y-52982D01*
X80106Y-53010D01*
X80162Y-53039D01*
X80218Y-53039D01*
X80275Y-53010D01*
X80303Y-52982D01*
X80331Y-52926D01*
X80359Y-52814D01*
X80359Y-52673D01*
X80331Y-52560D01*
X80303Y-52504D01*
X80275Y-52476D01*
X80218Y-52448D01*
X79797Y-52504D02*
X79768Y-52476D01*
X79712Y-52448D01*
X79572Y-52448D01*
X79515Y-52476D01*
X79487Y-52504D01*
X79459Y-52560D01*
X79459Y-52617D01*
X79487Y-52701D01*
X79825Y-53039D01*
X79459Y-53039D01*
X70149Y-40610D02*
X70065Y-40639D01*
X69924Y-40639D01*
X69868Y-40610D01*
X69840Y-40582D01*
X69812Y-40526D01*
X69812Y-40470D01*
X69840Y-40414D01*
X69868Y-40385D01*
X69924Y-40357D01*
X70037Y-40329D01*
X70093Y-40301D01*
X70121Y-40273D01*
X70149Y-40217D01*
X70149Y-40160D01*
X70121Y-40104D01*
X70093Y-40076D01*
X70037Y-40048D01*
X69896Y-40048D01*
X69812Y-40076D01*
X69306Y-40639D02*
X69306Y-40329D01*
X69334Y-40273D01*
X69390Y-40245D01*
X69503Y-40245D01*
X69559Y-40273D01*
X69306Y-40610D02*
X69362Y-40639D01*
X69503Y-40639D01*
X69559Y-40610D01*
X69587Y-40554D01*
X69587Y-40498D01*
X69559Y-40442D01*
X69503Y-40414D01*
X69362Y-40414D01*
X69306Y-40385D01*
X69024Y-40639D02*
X69024Y-40245D01*
X69024Y-40301D02*
X68996Y-40273D01*
X68940Y-40245D01*
X68856Y-40245D01*
X68800Y-40273D01*
X68771Y-40329D01*
X68771Y-40639D01*
X68771Y-40329D02*
X68743Y-40273D01*
X68687Y-40245D01*
X68603Y-40245D01*
X68546Y-40273D01*
X68518Y-40329D01*
X68518Y-40639D01*
X67787Y-40639D02*
X67787Y-40048D01*
X67450Y-40639D02*
X67703Y-40301D01*
X67450Y-40048D02*
X67787Y-40385D01*
X70023Y-41583D02*
X70220Y-41302D01*
X70360Y-41583D02*
X70360Y-40993D01*
X70135Y-40993D01*
X70079Y-41021D01*
X70051Y-41049D01*
X70023Y-41105D01*
X70023Y-41190D01*
X70051Y-41246D01*
X70079Y-41274D01*
X70135Y-41302D01*
X70360Y-41302D01*
X69545Y-41555D02*
X69601Y-41583D01*
X69713Y-41583D01*
X69770Y-41555D01*
X69798Y-41499D01*
X69798Y-41274D01*
X69770Y-41218D01*
X69713Y-41190D01*
X69601Y-41190D01*
X69545Y-41218D01*
X69517Y-41274D01*
X69517Y-41330D01*
X69798Y-41387D01*
X69320Y-41190D02*
X69179Y-41583D01*
X69039Y-41190D01*
X68054Y-41583D02*
X68392Y-41583D01*
X68223Y-41583D02*
X68223Y-40993D01*
X68279Y-41077D01*
X68335Y-41133D01*
X68392Y-41162D01*
X67801Y-41527D02*
X67773Y-41555D01*
X67801Y-41583D01*
X67829Y-41555D01*
X67801Y-41527D01*
X67801Y-41583D01*
X67407Y-40993D02*
X67351Y-40993D01*
X67295Y-41021D01*
X67267Y-41049D01*
X67239Y-41105D01*
X67211Y-41218D01*
X67211Y-41358D01*
X67239Y-41471D01*
X67267Y-41527D01*
X67295Y-41555D01*
X67351Y-41583D01*
X67407Y-41583D01*
X67464Y-41555D01*
X67492Y-41527D01*
X67520Y-41471D01*
X67548Y-41358D01*
X67548Y-41218D01*
X67520Y-41105D01*
X67492Y-41049D01*
X67464Y-41021D01*
X67407Y-40993D01*
G54D12*
X71900Y-51200D03*
X71900Y-50200D03*
X71900Y-49400D03*
X71900Y-48400D03*
G54D13*
X70850Y-52400D03*
X70850Y-47000D03*
G54D14*
X76300Y-44600D03*
G54D15*
X74300Y-44600D03*
X75300Y-44600D03*
G54D16*
X75300Y-51100D03*
G54D17*
X76600Y-43250D03*
X76600Y-41950D03*
X75300Y-43250D03*
X75300Y-41950D03*
X74000Y-43250D03*
X74000Y-41950D03*
G54D18*
X72241Y-43000D03*
X69879Y-43000D03*
X71060Y-44850D03*
X78259Y-43100D03*
X80621Y-43100D03*
X79440Y-41250D03*
X78259Y-50900D03*
X80621Y-50900D03*
X79440Y-49050D03*
M02*
