G04 (created by PCBNEW (2013-07-07 BZR 4022)-stable) date 2/9/2014 3:44:45 PM*
%MOIN*%
G04 Gerber Fmt 3.4, Leading zero omitted, Abs format*
%FSLAX34Y34*%
G01*
G70*
G90*
G04 APERTURE LIST*
%ADD10C,0.00590551*%
%ADD11C,0.0591*%
%ADD12C,0.1181*%
%ADD13R,0.07X0.07*%
%ADD14C,0.07*%
%ADD15R,0.35X0.35*%
%ADD16R,0.0629X0.0709*%
%ADD17R,0.1378X0.1378*%
%ADD18C,0.035*%
%ADD19C,0.01*%
G04 APERTURE END LIST*
G54D10*
G54D11*
X71900Y-51200D03*
X71900Y-50200D03*
X71900Y-49400D03*
X71900Y-48400D03*
G54D12*
X70850Y-52400D03*
X70850Y-47000D03*
G54D13*
X76300Y-44600D03*
G54D14*
X74300Y-44600D03*
X75300Y-44600D03*
G54D15*
X75300Y-51100D03*
G54D16*
X74741Y-40700D03*
X75859Y-40700D03*
G54D17*
X72241Y-43000D03*
X69879Y-43000D03*
X71060Y-44850D03*
X78259Y-43100D03*
X80621Y-43100D03*
X79440Y-41250D03*
X78259Y-50900D03*
X80621Y-50900D03*
X79440Y-49050D03*
G54D18*
X73900Y-40800D03*
G54D19*
X74741Y-40700D02*
X74000Y-40700D01*
X74000Y-40700D02*
X73900Y-40800D01*
G54D10*
G36*
X83430Y-53130D02*
X81560Y-53130D01*
X81560Y-51539D01*
X81560Y-50260D01*
X81560Y-43739D01*
X81560Y-42460D01*
X81559Y-42361D01*
X81521Y-42269D01*
X81451Y-42198D01*
X81359Y-42160D01*
X80733Y-42161D01*
X80671Y-42223D01*
X80671Y-43050D01*
X81497Y-43050D01*
X81560Y-42987D01*
X81560Y-42460D01*
X81560Y-43739D01*
X81560Y-43212D01*
X81497Y-43150D01*
X80671Y-43150D01*
X80671Y-43976D01*
X80733Y-44039D01*
X81359Y-44039D01*
X81451Y-44001D01*
X81521Y-43930D01*
X81559Y-43838D01*
X81560Y-43739D01*
X81560Y-50260D01*
X81559Y-50161D01*
X81521Y-50069D01*
X81451Y-49998D01*
X81359Y-49960D01*
X80733Y-49961D01*
X80671Y-50023D01*
X80671Y-50850D01*
X81497Y-50850D01*
X81560Y-50787D01*
X81560Y-50260D01*
X81560Y-51539D01*
X81560Y-51012D01*
X81497Y-50950D01*
X80671Y-50950D01*
X80671Y-51776D01*
X80733Y-51839D01*
X81359Y-51839D01*
X81451Y-51801D01*
X81521Y-51730D01*
X81559Y-51638D01*
X81560Y-51539D01*
X81560Y-53130D01*
X80571Y-53130D01*
X80571Y-51776D01*
X80571Y-50950D01*
X80571Y-50850D01*
X80571Y-50023D01*
X80571Y-43976D01*
X80571Y-43150D01*
X80571Y-43050D01*
X80571Y-42223D01*
X80508Y-42161D01*
X80246Y-42160D01*
X80270Y-42151D01*
X80340Y-42080D01*
X80378Y-41988D01*
X80379Y-41889D01*
X80379Y-40610D01*
X80378Y-40511D01*
X80340Y-40419D01*
X80270Y-40348D01*
X80178Y-40310D01*
X79552Y-40311D01*
X79490Y-40373D01*
X79490Y-41200D01*
X80316Y-41200D01*
X80379Y-41137D01*
X80379Y-40610D01*
X80379Y-41889D01*
X80379Y-41362D01*
X80316Y-41300D01*
X79490Y-41300D01*
X79490Y-42126D01*
X79552Y-42189D01*
X79814Y-42189D01*
X79790Y-42198D01*
X79720Y-42269D01*
X79682Y-42361D01*
X79681Y-42460D01*
X79682Y-42987D01*
X79744Y-43050D01*
X80571Y-43050D01*
X80571Y-43150D01*
X79744Y-43150D01*
X79682Y-43212D01*
X79681Y-43739D01*
X79682Y-43838D01*
X79720Y-43930D01*
X79790Y-44001D01*
X79882Y-44039D01*
X80508Y-44039D01*
X80571Y-43976D01*
X80571Y-50023D01*
X80508Y-49961D01*
X80246Y-49960D01*
X80270Y-49951D01*
X80340Y-49880D01*
X80378Y-49788D01*
X80379Y-49689D01*
X80379Y-48410D01*
X80378Y-48311D01*
X80340Y-48219D01*
X80270Y-48148D01*
X80178Y-48110D01*
X79552Y-48111D01*
X79490Y-48173D01*
X79490Y-49000D01*
X80316Y-49000D01*
X80379Y-48937D01*
X80379Y-48410D01*
X80379Y-49689D01*
X80379Y-49162D01*
X80316Y-49100D01*
X79490Y-49100D01*
X79490Y-49926D01*
X79552Y-49989D01*
X79814Y-49989D01*
X79790Y-49998D01*
X79720Y-50069D01*
X79682Y-50161D01*
X79681Y-50260D01*
X79682Y-50787D01*
X79744Y-50850D01*
X80571Y-50850D01*
X80571Y-50950D01*
X79744Y-50950D01*
X79682Y-51012D01*
X79681Y-51539D01*
X79682Y-51638D01*
X79720Y-51730D01*
X79790Y-51801D01*
X79882Y-51839D01*
X80508Y-51839D01*
X80571Y-51776D01*
X80571Y-53130D01*
X79390Y-53130D01*
X79390Y-49926D01*
X79390Y-49100D01*
X79390Y-49000D01*
X79390Y-48173D01*
X79390Y-42126D01*
X79390Y-41300D01*
X79390Y-41200D01*
X79390Y-40373D01*
X79327Y-40311D01*
X78701Y-40310D01*
X78609Y-40348D01*
X78539Y-40419D01*
X78501Y-40511D01*
X78500Y-40610D01*
X78501Y-41137D01*
X78563Y-41200D01*
X79390Y-41200D01*
X79390Y-41300D01*
X78563Y-41300D01*
X78501Y-41362D01*
X78500Y-41889D01*
X78501Y-41988D01*
X78539Y-42080D01*
X78609Y-42151D01*
X78633Y-42160D01*
X77520Y-42160D01*
X77428Y-42198D01*
X77358Y-42269D01*
X77320Y-42361D01*
X77319Y-42460D01*
X77319Y-43838D01*
X77357Y-43930D01*
X77428Y-44000D01*
X77520Y-44038D01*
X77619Y-44039D01*
X78997Y-44039D01*
X79089Y-44001D01*
X79159Y-43930D01*
X79197Y-43838D01*
X79198Y-43739D01*
X79198Y-42361D01*
X79160Y-42269D01*
X79089Y-42199D01*
X79065Y-42189D01*
X79327Y-42189D01*
X79390Y-42126D01*
X79390Y-48173D01*
X79327Y-48111D01*
X78701Y-48110D01*
X78609Y-48148D01*
X78539Y-48219D01*
X78501Y-48311D01*
X78500Y-48410D01*
X78501Y-48937D01*
X78563Y-49000D01*
X79390Y-49000D01*
X79390Y-49100D01*
X78563Y-49100D01*
X78501Y-49162D01*
X78500Y-49689D01*
X78501Y-49788D01*
X78539Y-49880D01*
X78609Y-49951D01*
X78633Y-49960D01*
X77520Y-49960D01*
X77428Y-49998D01*
X77358Y-50069D01*
X77320Y-50161D01*
X77319Y-50260D01*
X77319Y-51638D01*
X77357Y-51730D01*
X77428Y-51800D01*
X77520Y-51838D01*
X77619Y-51839D01*
X78997Y-51839D01*
X79089Y-51801D01*
X79159Y-51730D01*
X79197Y-51638D01*
X79198Y-51539D01*
X79198Y-50161D01*
X79160Y-50069D01*
X79089Y-49999D01*
X79065Y-49989D01*
X79327Y-49989D01*
X79390Y-49926D01*
X79390Y-53130D01*
X77300Y-53130D01*
X77300Y-52800D01*
X77300Y-49300D01*
X77262Y-49208D01*
X77191Y-49138D01*
X77099Y-49100D01*
X77000Y-49099D01*
X76900Y-49099D01*
X76900Y-44900D01*
X76900Y-44200D01*
X76862Y-44108D01*
X76791Y-44038D01*
X76699Y-44000D01*
X76600Y-43999D01*
X76423Y-43999D01*
X76423Y-41004D01*
X76423Y-40395D01*
X76423Y-40295D01*
X76385Y-40203D01*
X76314Y-40133D01*
X76223Y-40095D01*
X75971Y-40095D01*
X75909Y-40158D01*
X75909Y-40650D01*
X76361Y-40650D01*
X76423Y-40587D01*
X76423Y-40395D01*
X76423Y-41004D01*
X76423Y-40812D01*
X76361Y-40750D01*
X75909Y-40750D01*
X75909Y-41242D01*
X75971Y-41304D01*
X76223Y-41304D01*
X76314Y-41266D01*
X76385Y-41196D01*
X76423Y-41104D01*
X76423Y-41004D01*
X76423Y-43999D01*
X75900Y-43999D01*
X75809Y-44037D01*
X75809Y-41242D01*
X75809Y-40750D01*
X75801Y-40750D01*
X75801Y-40650D01*
X75809Y-40650D01*
X75809Y-40158D01*
X75746Y-40095D01*
X75494Y-40095D01*
X75403Y-40133D01*
X75332Y-40203D01*
X75299Y-40282D01*
X75267Y-40204D01*
X75197Y-40133D01*
X75105Y-40095D01*
X75005Y-40095D01*
X74376Y-40095D01*
X74285Y-40133D01*
X74214Y-40203D01*
X74176Y-40295D01*
X74176Y-40395D01*
X74176Y-40400D01*
X74044Y-40400D01*
X73984Y-40375D01*
X73815Y-40374D01*
X73659Y-40439D01*
X73539Y-40558D01*
X73475Y-40715D01*
X73474Y-40884D01*
X73539Y-41040D01*
X73658Y-41160D01*
X73815Y-41224D01*
X73984Y-41225D01*
X74140Y-41160D01*
X74182Y-41118D01*
X74214Y-41195D01*
X74284Y-41266D01*
X74376Y-41304D01*
X74476Y-41304D01*
X75105Y-41304D01*
X75196Y-41266D01*
X75267Y-41196D01*
X75300Y-41117D01*
X75332Y-41196D01*
X75403Y-41266D01*
X75494Y-41304D01*
X75746Y-41304D01*
X75809Y-41242D01*
X75809Y-44037D01*
X75808Y-44037D01*
X75738Y-44108D01*
X75718Y-44154D01*
X75696Y-44132D01*
X75651Y-44177D01*
X75617Y-44077D01*
X75393Y-43995D01*
X75155Y-44005D01*
X74982Y-44077D01*
X74948Y-44177D01*
X75300Y-44529D01*
X75305Y-44523D01*
X75376Y-44594D01*
X75370Y-44600D01*
X75376Y-44605D01*
X75305Y-44676D01*
X75300Y-44670D01*
X75229Y-44741D01*
X75229Y-44600D01*
X74877Y-44248D01*
X74812Y-44270D01*
X74808Y-44260D01*
X74640Y-44091D01*
X74419Y-44000D01*
X74181Y-43999D01*
X73960Y-44091D01*
X73791Y-44259D01*
X73700Y-44480D01*
X73699Y-44718D01*
X73791Y-44939D01*
X73959Y-45108D01*
X74180Y-45199D01*
X74418Y-45200D01*
X74639Y-45108D01*
X74808Y-44940D01*
X74812Y-44929D01*
X74877Y-44951D01*
X75229Y-44600D01*
X75229Y-44741D01*
X74948Y-45022D01*
X74982Y-45122D01*
X75206Y-45204D01*
X75444Y-45194D01*
X75617Y-45122D01*
X75651Y-45022D01*
X75651Y-45022D01*
X75696Y-45067D01*
X75718Y-45045D01*
X75737Y-45091D01*
X75808Y-45161D01*
X75900Y-45199D01*
X75999Y-45200D01*
X76699Y-45200D01*
X76791Y-45162D01*
X76861Y-45091D01*
X76899Y-44999D01*
X76900Y-44900D01*
X76900Y-49099D01*
X75651Y-49099D01*
X73500Y-49099D01*
X73408Y-49137D01*
X73338Y-49208D01*
X73300Y-49300D01*
X73299Y-49399D01*
X73299Y-52899D01*
X73337Y-52991D01*
X73408Y-53061D01*
X73500Y-53099D01*
X73599Y-53100D01*
X77099Y-53100D01*
X77191Y-53062D01*
X77261Y-52991D01*
X77299Y-52899D01*
X77300Y-52800D01*
X77300Y-53130D01*
X73180Y-53130D01*
X73180Y-43639D01*
X73180Y-42261D01*
X73142Y-42169D01*
X73071Y-42099D01*
X72979Y-42061D01*
X72880Y-42060D01*
X71502Y-42060D01*
X71410Y-42098D01*
X71340Y-42169D01*
X71302Y-42261D01*
X71301Y-42360D01*
X71301Y-43738D01*
X71339Y-43830D01*
X71410Y-43900D01*
X71434Y-43910D01*
X71172Y-43911D01*
X71110Y-43973D01*
X71110Y-44800D01*
X71936Y-44800D01*
X71999Y-44737D01*
X71999Y-44210D01*
X71998Y-44111D01*
X71960Y-44019D01*
X71890Y-43948D01*
X71866Y-43939D01*
X72979Y-43939D01*
X73071Y-43901D01*
X73141Y-43830D01*
X73179Y-43738D01*
X73180Y-43639D01*
X73180Y-53130D01*
X72450Y-53130D01*
X72450Y-51280D01*
X72450Y-50280D01*
X72450Y-49480D01*
X72445Y-49388D01*
X72445Y-48291D01*
X72362Y-48091D01*
X72209Y-47937D01*
X72008Y-47854D01*
X71999Y-47854D01*
X71999Y-45489D01*
X71999Y-44962D01*
X71936Y-44900D01*
X71110Y-44900D01*
X71110Y-45726D01*
X71172Y-45789D01*
X71798Y-45789D01*
X71890Y-45751D01*
X71960Y-45680D01*
X71998Y-45588D01*
X71999Y-45489D01*
X71999Y-47854D01*
X71791Y-47854D01*
X71690Y-47896D01*
X71690Y-46833D01*
X71562Y-46524D01*
X71326Y-46287D01*
X71017Y-46159D01*
X71010Y-46159D01*
X71010Y-45726D01*
X71010Y-44900D01*
X71010Y-44800D01*
X71010Y-43973D01*
X70947Y-43911D01*
X70685Y-43910D01*
X70709Y-43901D01*
X70779Y-43830D01*
X70817Y-43738D01*
X70818Y-43639D01*
X70818Y-42360D01*
X70817Y-42261D01*
X70779Y-42169D01*
X70709Y-42098D01*
X70617Y-42060D01*
X69991Y-42061D01*
X69929Y-42123D01*
X69929Y-42950D01*
X70755Y-42950D01*
X70818Y-42887D01*
X70818Y-42360D01*
X70818Y-43639D01*
X70818Y-43112D01*
X70755Y-43050D01*
X69929Y-43050D01*
X69929Y-43876D01*
X69991Y-43939D01*
X70253Y-43939D01*
X70229Y-43948D01*
X70159Y-44019D01*
X70121Y-44111D01*
X70120Y-44210D01*
X70121Y-44737D01*
X70183Y-44800D01*
X71010Y-44800D01*
X71010Y-44900D01*
X70183Y-44900D01*
X70121Y-44962D01*
X70120Y-45489D01*
X70121Y-45588D01*
X70159Y-45680D01*
X70229Y-45751D01*
X70321Y-45789D01*
X70947Y-45789D01*
X71010Y-45726D01*
X71010Y-46159D01*
X70683Y-46159D01*
X70374Y-46287D01*
X70137Y-46523D01*
X70009Y-46832D01*
X70009Y-47166D01*
X70137Y-47475D01*
X70373Y-47712D01*
X70682Y-47840D01*
X71016Y-47840D01*
X71325Y-47712D01*
X71562Y-47476D01*
X71690Y-47167D01*
X71690Y-46833D01*
X71690Y-47896D01*
X71591Y-47937D01*
X71437Y-48090D01*
X71354Y-48291D01*
X71354Y-48508D01*
X71437Y-48708D01*
X71590Y-48862D01*
X71675Y-48897D01*
X71614Y-48922D01*
X71588Y-49017D01*
X71900Y-49329D01*
X72211Y-49017D01*
X72185Y-48922D01*
X72120Y-48899D01*
X72208Y-48862D01*
X72362Y-48709D01*
X72445Y-48508D01*
X72445Y-48291D01*
X72445Y-49388D01*
X72439Y-49263D01*
X72377Y-49114D01*
X72282Y-49088D01*
X71970Y-49400D01*
X72282Y-49711D01*
X72377Y-49685D01*
X72450Y-49480D01*
X72450Y-50280D01*
X72439Y-50063D01*
X72377Y-49914D01*
X72282Y-49888D01*
X72211Y-49958D01*
X72211Y-49817D01*
X72207Y-49800D01*
X72211Y-49782D01*
X72198Y-49768D01*
X72185Y-49722D01*
X72133Y-49704D01*
X71900Y-49470D01*
X71829Y-49541D01*
X71829Y-49400D01*
X71517Y-49088D01*
X71422Y-49114D01*
X71349Y-49319D01*
X71360Y-49536D01*
X71422Y-49685D01*
X71517Y-49711D01*
X71829Y-49400D01*
X71829Y-49541D01*
X71671Y-49698D01*
X71614Y-49722D01*
X71601Y-49768D01*
X71588Y-49782D01*
X71592Y-49800D01*
X71588Y-49817D01*
X71601Y-49831D01*
X71614Y-49877D01*
X71666Y-49895D01*
X71900Y-50129D01*
X72128Y-49901D01*
X72185Y-49877D01*
X72198Y-49831D01*
X72211Y-49817D01*
X72211Y-49958D01*
X71970Y-50200D01*
X72282Y-50511D01*
X72377Y-50485D01*
X72450Y-50280D01*
X72450Y-51280D01*
X72439Y-51063D01*
X72377Y-50914D01*
X72282Y-50888D01*
X72211Y-50958D01*
X72211Y-50817D01*
X72185Y-50722D01*
X72126Y-50701D01*
X72185Y-50677D01*
X72211Y-50582D01*
X71900Y-50270D01*
X71829Y-50341D01*
X71829Y-50200D01*
X71517Y-49888D01*
X71422Y-49914D01*
X71349Y-50119D01*
X71360Y-50336D01*
X71422Y-50485D01*
X71517Y-50511D01*
X71829Y-50200D01*
X71829Y-50341D01*
X71588Y-50582D01*
X71614Y-50677D01*
X71673Y-50698D01*
X71614Y-50722D01*
X71588Y-50817D01*
X71900Y-51129D01*
X72211Y-50817D01*
X72211Y-50958D01*
X71970Y-51200D01*
X72282Y-51511D01*
X72377Y-51485D01*
X72450Y-51280D01*
X72450Y-53130D01*
X72211Y-53130D01*
X72211Y-51582D01*
X71900Y-51270D01*
X71829Y-51341D01*
X71829Y-51200D01*
X71517Y-50888D01*
X71422Y-50914D01*
X71349Y-51119D01*
X71360Y-51336D01*
X71422Y-51485D01*
X71517Y-51511D01*
X71829Y-51200D01*
X71829Y-51341D01*
X71588Y-51582D01*
X71614Y-51677D01*
X71819Y-51750D01*
X72036Y-51739D01*
X72185Y-51677D01*
X72211Y-51582D01*
X72211Y-53130D01*
X71283Y-53130D01*
X71325Y-53112D01*
X71562Y-52876D01*
X71690Y-52567D01*
X71690Y-52233D01*
X71562Y-51924D01*
X71326Y-51687D01*
X71017Y-51559D01*
X70683Y-51559D01*
X70374Y-51687D01*
X70137Y-51923D01*
X70009Y-52232D01*
X70009Y-52566D01*
X70137Y-52875D01*
X70373Y-53112D01*
X70417Y-53130D01*
X69829Y-53130D01*
X69829Y-43876D01*
X69829Y-43050D01*
X69829Y-42950D01*
X69829Y-42123D01*
X69766Y-42061D01*
X69140Y-42060D01*
X69048Y-42098D01*
X68978Y-42169D01*
X68940Y-42261D01*
X68939Y-42360D01*
X68940Y-42887D01*
X69002Y-42950D01*
X69829Y-42950D01*
X69829Y-43050D01*
X69002Y-43050D01*
X68940Y-43112D01*
X68939Y-43639D01*
X68940Y-43738D01*
X68978Y-43830D01*
X69048Y-43901D01*
X69140Y-43939D01*
X69766Y-43939D01*
X69829Y-43876D01*
X69829Y-53130D01*
X67100Y-53130D01*
X67069Y-53130D01*
X67069Y-39869D01*
X83430Y-39869D01*
X83430Y-53130D01*
X83430Y-53130D01*
G37*
G54D19*
X83430Y-53130D02*
X81560Y-53130D01*
X81560Y-51539D01*
X81560Y-50260D01*
X81560Y-43739D01*
X81560Y-42460D01*
X81559Y-42361D01*
X81521Y-42269D01*
X81451Y-42198D01*
X81359Y-42160D01*
X80733Y-42161D01*
X80671Y-42223D01*
X80671Y-43050D01*
X81497Y-43050D01*
X81560Y-42987D01*
X81560Y-42460D01*
X81560Y-43739D01*
X81560Y-43212D01*
X81497Y-43150D01*
X80671Y-43150D01*
X80671Y-43976D01*
X80733Y-44039D01*
X81359Y-44039D01*
X81451Y-44001D01*
X81521Y-43930D01*
X81559Y-43838D01*
X81560Y-43739D01*
X81560Y-50260D01*
X81559Y-50161D01*
X81521Y-50069D01*
X81451Y-49998D01*
X81359Y-49960D01*
X80733Y-49961D01*
X80671Y-50023D01*
X80671Y-50850D01*
X81497Y-50850D01*
X81560Y-50787D01*
X81560Y-50260D01*
X81560Y-51539D01*
X81560Y-51012D01*
X81497Y-50950D01*
X80671Y-50950D01*
X80671Y-51776D01*
X80733Y-51839D01*
X81359Y-51839D01*
X81451Y-51801D01*
X81521Y-51730D01*
X81559Y-51638D01*
X81560Y-51539D01*
X81560Y-53130D01*
X80571Y-53130D01*
X80571Y-51776D01*
X80571Y-50950D01*
X80571Y-50850D01*
X80571Y-50023D01*
X80571Y-43976D01*
X80571Y-43150D01*
X80571Y-43050D01*
X80571Y-42223D01*
X80508Y-42161D01*
X80246Y-42160D01*
X80270Y-42151D01*
X80340Y-42080D01*
X80378Y-41988D01*
X80379Y-41889D01*
X80379Y-40610D01*
X80378Y-40511D01*
X80340Y-40419D01*
X80270Y-40348D01*
X80178Y-40310D01*
X79552Y-40311D01*
X79490Y-40373D01*
X79490Y-41200D01*
X80316Y-41200D01*
X80379Y-41137D01*
X80379Y-40610D01*
X80379Y-41889D01*
X80379Y-41362D01*
X80316Y-41300D01*
X79490Y-41300D01*
X79490Y-42126D01*
X79552Y-42189D01*
X79814Y-42189D01*
X79790Y-42198D01*
X79720Y-42269D01*
X79682Y-42361D01*
X79681Y-42460D01*
X79682Y-42987D01*
X79744Y-43050D01*
X80571Y-43050D01*
X80571Y-43150D01*
X79744Y-43150D01*
X79682Y-43212D01*
X79681Y-43739D01*
X79682Y-43838D01*
X79720Y-43930D01*
X79790Y-44001D01*
X79882Y-44039D01*
X80508Y-44039D01*
X80571Y-43976D01*
X80571Y-50023D01*
X80508Y-49961D01*
X80246Y-49960D01*
X80270Y-49951D01*
X80340Y-49880D01*
X80378Y-49788D01*
X80379Y-49689D01*
X80379Y-48410D01*
X80378Y-48311D01*
X80340Y-48219D01*
X80270Y-48148D01*
X80178Y-48110D01*
X79552Y-48111D01*
X79490Y-48173D01*
X79490Y-49000D01*
X80316Y-49000D01*
X80379Y-48937D01*
X80379Y-48410D01*
X80379Y-49689D01*
X80379Y-49162D01*
X80316Y-49100D01*
X79490Y-49100D01*
X79490Y-49926D01*
X79552Y-49989D01*
X79814Y-49989D01*
X79790Y-49998D01*
X79720Y-50069D01*
X79682Y-50161D01*
X79681Y-50260D01*
X79682Y-50787D01*
X79744Y-50850D01*
X80571Y-50850D01*
X80571Y-50950D01*
X79744Y-50950D01*
X79682Y-51012D01*
X79681Y-51539D01*
X79682Y-51638D01*
X79720Y-51730D01*
X79790Y-51801D01*
X79882Y-51839D01*
X80508Y-51839D01*
X80571Y-51776D01*
X80571Y-53130D01*
X79390Y-53130D01*
X79390Y-49926D01*
X79390Y-49100D01*
X79390Y-49000D01*
X79390Y-48173D01*
X79390Y-42126D01*
X79390Y-41300D01*
X79390Y-41200D01*
X79390Y-40373D01*
X79327Y-40311D01*
X78701Y-40310D01*
X78609Y-40348D01*
X78539Y-40419D01*
X78501Y-40511D01*
X78500Y-40610D01*
X78501Y-41137D01*
X78563Y-41200D01*
X79390Y-41200D01*
X79390Y-41300D01*
X78563Y-41300D01*
X78501Y-41362D01*
X78500Y-41889D01*
X78501Y-41988D01*
X78539Y-42080D01*
X78609Y-42151D01*
X78633Y-42160D01*
X77520Y-42160D01*
X77428Y-42198D01*
X77358Y-42269D01*
X77320Y-42361D01*
X77319Y-42460D01*
X77319Y-43838D01*
X77357Y-43930D01*
X77428Y-44000D01*
X77520Y-44038D01*
X77619Y-44039D01*
X78997Y-44039D01*
X79089Y-44001D01*
X79159Y-43930D01*
X79197Y-43838D01*
X79198Y-43739D01*
X79198Y-42361D01*
X79160Y-42269D01*
X79089Y-42199D01*
X79065Y-42189D01*
X79327Y-42189D01*
X79390Y-42126D01*
X79390Y-48173D01*
X79327Y-48111D01*
X78701Y-48110D01*
X78609Y-48148D01*
X78539Y-48219D01*
X78501Y-48311D01*
X78500Y-48410D01*
X78501Y-48937D01*
X78563Y-49000D01*
X79390Y-49000D01*
X79390Y-49100D01*
X78563Y-49100D01*
X78501Y-49162D01*
X78500Y-49689D01*
X78501Y-49788D01*
X78539Y-49880D01*
X78609Y-49951D01*
X78633Y-49960D01*
X77520Y-49960D01*
X77428Y-49998D01*
X77358Y-50069D01*
X77320Y-50161D01*
X77319Y-50260D01*
X77319Y-51638D01*
X77357Y-51730D01*
X77428Y-51800D01*
X77520Y-51838D01*
X77619Y-51839D01*
X78997Y-51839D01*
X79089Y-51801D01*
X79159Y-51730D01*
X79197Y-51638D01*
X79198Y-51539D01*
X79198Y-50161D01*
X79160Y-50069D01*
X79089Y-49999D01*
X79065Y-49989D01*
X79327Y-49989D01*
X79390Y-49926D01*
X79390Y-53130D01*
X77300Y-53130D01*
X77300Y-52800D01*
X77300Y-49300D01*
X77262Y-49208D01*
X77191Y-49138D01*
X77099Y-49100D01*
X77000Y-49099D01*
X76900Y-49099D01*
X76900Y-44900D01*
X76900Y-44200D01*
X76862Y-44108D01*
X76791Y-44038D01*
X76699Y-44000D01*
X76600Y-43999D01*
X76423Y-43999D01*
X76423Y-41004D01*
X76423Y-40395D01*
X76423Y-40295D01*
X76385Y-40203D01*
X76314Y-40133D01*
X76223Y-40095D01*
X75971Y-40095D01*
X75909Y-40158D01*
X75909Y-40650D01*
X76361Y-40650D01*
X76423Y-40587D01*
X76423Y-40395D01*
X76423Y-41004D01*
X76423Y-40812D01*
X76361Y-40750D01*
X75909Y-40750D01*
X75909Y-41242D01*
X75971Y-41304D01*
X76223Y-41304D01*
X76314Y-41266D01*
X76385Y-41196D01*
X76423Y-41104D01*
X76423Y-41004D01*
X76423Y-43999D01*
X75900Y-43999D01*
X75809Y-44037D01*
X75809Y-41242D01*
X75809Y-40750D01*
X75801Y-40750D01*
X75801Y-40650D01*
X75809Y-40650D01*
X75809Y-40158D01*
X75746Y-40095D01*
X75494Y-40095D01*
X75403Y-40133D01*
X75332Y-40203D01*
X75299Y-40282D01*
X75267Y-40204D01*
X75197Y-40133D01*
X75105Y-40095D01*
X75005Y-40095D01*
X74376Y-40095D01*
X74285Y-40133D01*
X74214Y-40203D01*
X74176Y-40295D01*
X74176Y-40395D01*
X74176Y-40400D01*
X74044Y-40400D01*
X73984Y-40375D01*
X73815Y-40374D01*
X73659Y-40439D01*
X73539Y-40558D01*
X73475Y-40715D01*
X73474Y-40884D01*
X73539Y-41040D01*
X73658Y-41160D01*
X73815Y-41224D01*
X73984Y-41225D01*
X74140Y-41160D01*
X74182Y-41118D01*
X74214Y-41195D01*
X74284Y-41266D01*
X74376Y-41304D01*
X74476Y-41304D01*
X75105Y-41304D01*
X75196Y-41266D01*
X75267Y-41196D01*
X75300Y-41117D01*
X75332Y-41196D01*
X75403Y-41266D01*
X75494Y-41304D01*
X75746Y-41304D01*
X75809Y-41242D01*
X75809Y-44037D01*
X75808Y-44037D01*
X75738Y-44108D01*
X75718Y-44154D01*
X75696Y-44132D01*
X75651Y-44177D01*
X75617Y-44077D01*
X75393Y-43995D01*
X75155Y-44005D01*
X74982Y-44077D01*
X74948Y-44177D01*
X75300Y-44529D01*
X75305Y-44523D01*
X75376Y-44594D01*
X75370Y-44600D01*
X75376Y-44605D01*
X75305Y-44676D01*
X75300Y-44670D01*
X75229Y-44741D01*
X75229Y-44600D01*
X74877Y-44248D01*
X74812Y-44270D01*
X74808Y-44260D01*
X74640Y-44091D01*
X74419Y-44000D01*
X74181Y-43999D01*
X73960Y-44091D01*
X73791Y-44259D01*
X73700Y-44480D01*
X73699Y-44718D01*
X73791Y-44939D01*
X73959Y-45108D01*
X74180Y-45199D01*
X74418Y-45200D01*
X74639Y-45108D01*
X74808Y-44940D01*
X74812Y-44929D01*
X74877Y-44951D01*
X75229Y-44600D01*
X75229Y-44741D01*
X74948Y-45022D01*
X74982Y-45122D01*
X75206Y-45204D01*
X75444Y-45194D01*
X75617Y-45122D01*
X75651Y-45022D01*
X75651Y-45022D01*
X75696Y-45067D01*
X75718Y-45045D01*
X75737Y-45091D01*
X75808Y-45161D01*
X75900Y-45199D01*
X75999Y-45200D01*
X76699Y-45200D01*
X76791Y-45162D01*
X76861Y-45091D01*
X76899Y-44999D01*
X76900Y-44900D01*
X76900Y-49099D01*
X75651Y-49099D01*
X73500Y-49099D01*
X73408Y-49137D01*
X73338Y-49208D01*
X73300Y-49300D01*
X73299Y-49399D01*
X73299Y-52899D01*
X73337Y-52991D01*
X73408Y-53061D01*
X73500Y-53099D01*
X73599Y-53100D01*
X77099Y-53100D01*
X77191Y-53062D01*
X77261Y-52991D01*
X77299Y-52899D01*
X77300Y-52800D01*
X77300Y-53130D01*
X73180Y-53130D01*
X73180Y-43639D01*
X73180Y-42261D01*
X73142Y-42169D01*
X73071Y-42099D01*
X72979Y-42061D01*
X72880Y-42060D01*
X71502Y-42060D01*
X71410Y-42098D01*
X71340Y-42169D01*
X71302Y-42261D01*
X71301Y-42360D01*
X71301Y-43738D01*
X71339Y-43830D01*
X71410Y-43900D01*
X71434Y-43910D01*
X71172Y-43911D01*
X71110Y-43973D01*
X71110Y-44800D01*
X71936Y-44800D01*
X71999Y-44737D01*
X71999Y-44210D01*
X71998Y-44111D01*
X71960Y-44019D01*
X71890Y-43948D01*
X71866Y-43939D01*
X72979Y-43939D01*
X73071Y-43901D01*
X73141Y-43830D01*
X73179Y-43738D01*
X73180Y-43639D01*
X73180Y-53130D01*
X72450Y-53130D01*
X72450Y-51280D01*
X72450Y-50280D01*
X72450Y-49480D01*
X72445Y-49388D01*
X72445Y-48291D01*
X72362Y-48091D01*
X72209Y-47937D01*
X72008Y-47854D01*
X71999Y-47854D01*
X71999Y-45489D01*
X71999Y-44962D01*
X71936Y-44900D01*
X71110Y-44900D01*
X71110Y-45726D01*
X71172Y-45789D01*
X71798Y-45789D01*
X71890Y-45751D01*
X71960Y-45680D01*
X71998Y-45588D01*
X71999Y-45489D01*
X71999Y-47854D01*
X71791Y-47854D01*
X71690Y-47896D01*
X71690Y-46833D01*
X71562Y-46524D01*
X71326Y-46287D01*
X71017Y-46159D01*
X71010Y-46159D01*
X71010Y-45726D01*
X71010Y-44900D01*
X71010Y-44800D01*
X71010Y-43973D01*
X70947Y-43911D01*
X70685Y-43910D01*
X70709Y-43901D01*
X70779Y-43830D01*
X70817Y-43738D01*
X70818Y-43639D01*
X70818Y-42360D01*
X70817Y-42261D01*
X70779Y-42169D01*
X70709Y-42098D01*
X70617Y-42060D01*
X69991Y-42061D01*
X69929Y-42123D01*
X69929Y-42950D01*
X70755Y-42950D01*
X70818Y-42887D01*
X70818Y-42360D01*
X70818Y-43639D01*
X70818Y-43112D01*
X70755Y-43050D01*
X69929Y-43050D01*
X69929Y-43876D01*
X69991Y-43939D01*
X70253Y-43939D01*
X70229Y-43948D01*
X70159Y-44019D01*
X70121Y-44111D01*
X70120Y-44210D01*
X70121Y-44737D01*
X70183Y-44800D01*
X71010Y-44800D01*
X71010Y-44900D01*
X70183Y-44900D01*
X70121Y-44962D01*
X70120Y-45489D01*
X70121Y-45588D01*
X70159Y-45680D01*
X70229Y-45751D01*
X70321Y-45789D01*
X70947Y-45789D01*
X71010Y-45726D01*
X71010Y-46159D01*
X70683Y-46159D01*
X70374Y-46287D01*
X70137Y-46523D01*
X70009Y-46832D01*
X70009Y-47166D01*
X70137Y-47475D01*
X70373Y-47712D01*
X70682Y-47840D01*
X71016Y-47840D01*
X71325Y-47712D01*
X71562Y-47476D01*
X71690Y-47167D01*
X71690Y-46833D01*
X71690Y-47896D01*
X71591Y-47937D01*
X71437Y-48090D01*
X71354Y-48291D01*
X71354Y-48508D01*
X71437Y-48708D01*
X71590Y-48862D01*
X71675Y-48897D01*
X71614Y-48922D01*
X71588Y-49017D01*
X71900Y-49329D01*
X72211Y-49017D01*
X72185Y-48922D01*
X72120Y-48899D01*
X72208Y-48862D01*
X72362Y-48709D01*
X72445Y-48508D01*
X72445Y-48291D01*
X72445Y-49388D01*
X72439Y-49263D01*
X72377Y-49114D01*
X72282Y-49088D01*
X71970Y-49400D01*
X72282Y-49711D01*
X72377Y-49685D01*
X72450Y-49480D01*
X72450Y-50280D01*
X72439Y-50063D01*
X72377Y-49914D01*
X72282Y-49888D01*
X72211Y-49958D01*
X72211Y-49817D01*
X72207Y-49800D01*
X72211Y-49782D01*
X72198Y-49768D01*
X72185Y-49722D01*
X72133Y-49704D01*
X71900Y-49470D01*
X71829Y-49541D01*
X71829Y-49400D01*
X71517Y-49088D01*
X71422Y-49114D01*
X71349Y-49319D01*
X71360Y-49536D01*
X71422Y-49685D01*
X71517Y-49711D01*
X71829Y-49400D01*
X71829Y-49541D01*
X71671Y-49698D01*
X71614Y-49722D01*
X71601Y-49768D01*
X71588Y-49782D01*
X71592Y-49800D01*
X71588Y-49817D01*
X71601Y-49831D01*
X71614Y-49877D01*
X71666Y-49895D01*
X71900Y-50129D01*
X72128Y-49901D01*
X72185Y-49877D01*
X72198Y-49831D01*
X72211Y-49817D01*
X72211Y-49958D01*
X71970Y-50200D01*
X72282Y-50511D01*
X72377Y-50485D01*
X72450Y-50280D01*
X72450Y-51280D01*
X72439Y-51063D01*
X72377Y-50914D01*
X72282Y-50888D01*
X72211Y-50958D01*
X72211Y-50817D01*
X72185Y-50722D01*
X72126Y-50701D01*
X72185Y-50677D01*
X72211Y-50582D01*
X71900Y-50270D01*
X71829Y-50341D01*
X71829Y-50200D01*
X71517Y-49888D01*
X71422Y-49914D01*
X71349Y-50119D01*
X71360Y-50336D01*
X71422Y-50485D01*
X71517Y-50511D01*
X71829Y-50200D01*
X71829Y-50341D01*
X71588Y-50582D01*
X71614Y-50677D01*
X71673Y-50698D01*
X71614Y-50722D01*
X71588Y-50817D01*
X71900Y-51129D01*
X72211Y-50817D01*
X72211Y-50958D01*
X71970Y-51200D01*
X72282Y-51511D01*
X72377Y-51485D01*
X72450Y-51280D01*
X72450Y-53130D01*
X72211Y-53130D01*
X72211Y-51582D01*
X71900Y-51270D01*
X71829Y-51341D01*
X71829Y-51200D01*
X71517Y-50888D01*
X71422Y-50914D01*
X71349Y-51119D01*
X71360Y-51336D01*
X71422Y-51485D01*
X71517Y-51511D01*
X71829Y-51200D01*
X71829Y-51341D01*
X71588Y-51582D01*
X71614Y-51677D01*
X71819Y-51750D01*
X72036Y-51739D01*
X72185Y-51677D01*
X72211Y-51582D01*
X72211Y-53130D01*
X71283Y-53130D01*
X71325Y-53112D01*
X71562Y-52876D01*
X71690Y-52567D01*
X71690Y-52233D01*
X71562Y-51924D01*
X71326Y-51687D01*
X71017Y-51559D01*
X70683Y-51559D01*
X70374Y-51687D01*
X70137Y-51923D01*
X70009Y-52232D01*
X70009Y-52566D01*
X70137Y-52875D01*
X70373Y-53112D01*
X70417Y-53130D01*
X69829Y-53130D01*
X69829Y-43876D01*
X69829Y-43050D01*
X69829Y-42950D01*
X69829Y-42123D01*
X69766Y-42061D01*
X69140Y-42060D01*
X69048Y-42098D01*
X68978Y-42169D01*
X68940Y-42261D01*
X68939Y-42360D01*
X68940Y-42887D01*
X69002Y-42950D01*
X69829Y-42950D01*
X69829Y-43050D01*
X69002Y-43050D01*
X68940Y-43112D01*
X68939Y-43639D01*
X68940Y-43738D01*
X68978Y-43830D01*
X69048Y-43901D01*
X69140Y-43939D01*
X69766Y-43939D01*
X69829Y-43876D01*
X69829Y-53130D01*
X67100Y-53130D01*
X67069Y-53130D01*
X67069Y-39869D01*
X83430Y-39869D01*
X83430Y-53130D01*
M02*
