G04 (created by PCBNEW (2013-07-07 BZR 4022)-stable) date 2/9/2014 3:44:45 PM*
%MOIN*%
G04 Gerber Fmt 3.4, Leading zero omitted, Abs format*
%FSLAX34Y34*%
G01*
G70*
G90*
G04 APERTURE LIST*
%ADD10C,0.00590551*%
%ADD11C,0.012*%
%ADD12C,0.005*%
%ADD13C,0.008*%
G04 APERTURE END LIST*
G54D10*
G54D11*
X74300Y-44600D02*
X74300Y-46600D01*
X75300Y-44600D02*
X75300Y-46600D01*
X76300Y-44600D02*
X76300Y-46600D01*
X77300Y-46600D02*
X77300Y-52600D01*
X77300Y-52600D02*
X73300Y-52600D01*
X73300Y-52600D02*
X73300Y-46600D01*
X73300Y-46600D02*
X77300Y-46600D01*
X76800Y-49600D02*
X73300Y-49600D01*
X76800Y-49600D02*
X77300Y-49600D01*
G54D12*
X77050Y-43600D02*
X76150Y-43600D01*
X76150Y-43600D02*
X76150Y-42950D01*
X77050Y-42250D02*
X77050Y-41600D01*
X77050Y-41600D02*
X76150Y-41600D01*
X76150Y-41600D02*
X76150Y-42250D01*
X77050Y-42950D02*
X77050Y-43600D01*
X75750Y-43600D02*
X74850Y-43600D01*
X74850Y-43600D02*
X74850Y-42950D01*
X75750Y-42250D02*
X75750Y-41600D01*
X75750Y-41600D02*
X74850Y-41600D01*
X74850Y-41600D02*
X74850Y-42250D01*
X75750Y-42950D02*
X75750Y-43600D01*
X74450Y-43600D02*
X73550Y-43600D01*
X73550Y-43600D02*
X73550Y-42950D01*
X74450Y-42250D02*
X74450Y-41600D01*
X74450Y-41600D02*
X73550Y-41600D01*
X73550Y-41600D02*
X73550Y-42250D01*
X74450Y-42950D02*
X74450Y-43600D01*
G54D13*
X75604Y-47111D02*
X75604Y-47435D01*
X75585Y-47473D01*
X75566Y-47492D01*
X75528Y-47511D01*
X75452Y-47511D01*
X75414Y-47492D01*
X75395Y-47473D01*
X75376Y-47435D01*
X75376Y-47111D01*
X74976Y-47511D02*
X75204Y-47511D01*
X75090Y-47511D02*
X75090Y-47111D01*
X75128Y-47169D01*
X75166Y-47207D01*
X75204Y-47226D01*
X76166Y-49011D02*
X76357Y-49011D01*
X76357Y-48611D01*
X76033Y-49011D02*
X76033Y-48611D01*
X75900Y-48897D01*
X75766Y-48611D01*
X75766Y-49011D01*
X75366Y-49011D02*
X75595Y-49011D01*
X75480Y-49011D02*
X75480Y-48611D01*
X75519Y-48669D01*
X75557Y-48707D01*
X75595Y-48726D01*
X75119Y-48611D02*
X75080Y-48611D01*
X75042Y-48630D01*
X75023Y-48650D01*
X75004Y-48688D01*
X74985Y-48764D01*
X74985Y-48859D01*
X75004Y-48935D01*
X75023Y-48973D01*
X75042Y-48992D01*
X75080Y-49011D01*
X75119Y-49011D01*
X75157Y-48992D01*
X75176Y-48973D01*
X75195Y-48935D01*
X75214Y-48859D01*
X75214Y-48764D01*
X75195Y-48688D01*
X75176Y-48650D01*
X75157Y-48630D01*
X75119Y-48611D01*
X74757Y-48783D02*
X74795Y-48764D01*
X74814Y-48745D01*
X74833Y-48707D01*
X74833Y-48688D01*
X74814Y-48650D01*
X74795Y-48630D01*
X74757Y-48611D01*
X74680Y-48611D01*
X74642Y-48630D01*
X74623Y-48650D01*
X74604Y-48688D01*
X74604Y-48707D01*
X74623Y-48745D01*
X74642Y-48764D01*
X74680Y-48783D01*
X74757Y-48783D01*
X74795Y-48802D01*
X74814Y-48821D01*
X74833Y-48859D01*
X74833Y-48935D01*
X74814Y-48973D01*
X74795Y-48992D01*
X74757Y-49011D01*
X74680Y-49011D01*
X74642Y-48992D01*
X74623Y-48973D01*
X74604Y-48935D01*
X74604Y-48859D01*
X74623Y-48821D01*
X74642Y-48802D01*
X74680Y-48783D01*
X74242Y-48611D02*
X74433Y-48611D01*
X74452Y-48802D01*
X74433Y-48783D01*
X74395Y-48764D01*
X74300Y-48764D01*
X74261Y-48783D01*
X74242Y-48802D01*
X74223Y-48840D01*
X74223Y-48935D01*
X74242Y-48973D01*
X74261Y-48992D01*
X74300Y-49011D01*
X74395Y-49011D01*
X74433Y-48992D01*
X74452Y-48973D01*
G54D12*
X76692Y-42550D02*
X76707Y-42535D01*
X76721Y-42492D01*
X76721Y-42464D01*
X76707Y-42421D01*
X76678Y-42392D01*
X76650Y-42378D01*
X76592Y-42364D01*
X76550Y-42364D01*
X76492Y-42378D01*
X76464Y-42392D01*
X76435Y-42421D01*
X76421Y-42464D01*
X76421Y-42492D01*
X76435Y-42535D01*
X76450Y-42550D01*
X76721Y-42835D02*
X76721Y-42664D01*
X76721Y-42750D02*
X76421Y-42750D01*
X76464Y-42721D01*
X76492Y-42692D01*
X76507Y-42664D01*
X75392Y-42550D02*
X75407Y-42535D01*
X75421Y-42492D01*
X75421Y-42464D01*
X75407Y-42421D01*
X75378Y-42392D01*
X75350Y-42378D01*
X75292Y-42364D01*
X75250Y-42364D01*
X75192Y-42378D01*
X75164Y-42392D01*
X75135Y-42421D01*
X75121Y-42464D01*
X75121Y-42492D01*
X75135Y-42535D01*
X75150Y-42550D01*
X75150Y-42664D02*
X75135Y-42678D01*
X75121Y-42707D01*
X75121Y-42778D01*
X75135Y-42807D01*
X75150Y-42821D01*
X75178Y-42835D01*
X75207Y-42835D01*
X75250Y-42821D01*
X75421Y-42650D01*
X75421Y-42835D01*
X74121Y-42550D02*
X73978Y-42450D01*
X74121Y-42378D02*
X73821Y-42378D01*
X73821Y-42492D01*
X73835Y-42521D01*
X73850Y-42535D01*
X73878Y-42550D01*
X73921Y-42550D01*
X73950Y-42535D01*
X73964Y-42521D01*
X73978Y-42492D01*
X73978Y-42378D01*
X74121Y-42835D02*
X74121Y-42664D01*
X74121Y-42750D02*
X73821Y-42750D01*
X73864Y-42721D01*
X73892Y-42692D01*
X73907Y-42664D01*
M02*
